<svg xmlns="http://www.w3.org/2000/svg" width="20" height="20" fill="none" viewBox="0 0 20 20"><rect width="19" height="19" x=".5" y=".5" fill="#FFEFEF" stroke="#F3AEAF" rx="4.5"/><path fill="#EB9091" d="M7.306 10.064a.93.93 0 0 1-.133.488.96.96 0 0 1-.843.488H4.969c-.06 0-.089.032-.089.096v1.524a.334.334 0 0 1-.103.244.322.322 0 0 1-.237.096h-.2a.347.347 0 0 1-.244-.096A.347.347 0 0 1 4 12.66V8.34a.33.33 0 0 1 .096-.244A.347.347 0 0 1 4.34 8h1.99a.96.96 0 0 1 .843.488.945.945 0 0 1 .133.496v1.08Zm-.873 0v-1.08c0-.07-.034-.104-.103-.104H4.969c-.06 0-.089.032-.089.096v1.088c0 .064.03.096.089.096h1.36c.07 0 .104-.032.104-.096Zm5.129 1.96a.93.93 0 0 1-.133.488 1.02 1.02 0 0 1-.355.355.931.931 0 0 1-.488.133H8.61a.347.347 0 0 1-.244-.096.347.347 0 0 1-.097-.244V8.34a.33.33 0 0 1 .097-.244A.347.347 0 0 1 8.61 8h1.975a.93.93 0 0 1 .488.133c.148.089.266.207.355.355a.945.945 0 0 1 .133.496v3.04Zm-.88 0v-3.04c0-.07-.032-.104-.096-.104H9.254c-.064 0-.096.032-.096.096v3.055c0 .064.032.096.096.096h1.332c.024 0 .046-.01.066-.03a.115.115 0 0 0 .03-.073Zm5.062-3.484a.334.334 0 0 1-.104.244.313.313 0 0 1-.23.096h-1.908c-.059 0-.088.032-.088.096v.984c0 .07.03.104.088.104h1.643a.33.33 0 0 1 .34.332v.208a.347.347 0 0 1-.096.244.33.33 0 0 1-.244.096h-1.643c-.059 0-.088.03-.088.088v1.628a.334.334 0 0 1-.104.244.322.322 0 0 1-.237.096h-.207a.338.338 0 0 1-.236-.096.347.347 0 0 1-.097-.244V8.34a.33.33 0 0 1 .333-.34h2.545c.088 0 .165.032.229.096.07.064.104.146.104.244v.2Z"/></svg>