<svg xmlns="http://www.w3.org/2000/svg" width="120" height="121" fill="none"><g filter="url(#a)"><path fill="url(#b)" d="M40.199 34.342A6 6 0 0 1 44.954 32h30.092a6 6 0 0 1 4.755 2.342l16.955 22.04A6 6 0 0 1 98 60.041V82a6 6 0 0 1-6 6H28a6 6 0 0 1-6-6V60.04a6 6 0 0 1 1.244-3.657L40.2 34.341Z"/><path fill="#fff" fill-rule="evenodd" d="M75.046 34H44.954a4 4 0 0 0-3.17 1.561L24.83 57.601a4 4 0 0 0-.83 2.44V82a4 4 0 0 0 4 4h64a4 4 0 0 0 4-4V60.04a4 4 0 0 0-.83-2.438l-16.954-22.04A4 4 0 0 0 75.046 34Zm-30.092-2a6 6 0 0 0-4.755 2.342l-16.955 22.04A6 6 0 0 0 22 60.041V82a6 6 0 0 0 6 6h64a6 6 0 0 0 6-6V60.04a6 6 0 0 0-1.244-3.657L79.8 34.341A6 6 0 0 0 75.046 32H44.954Z" clip-rule="evenodd"/><path fill="url(#c)" fill-rule="evenodd" d="M75.046 33H44.954a5 5 0 0 0-3.963 1.951L24.037 56.992A5 5 0 0 0 23 60.041V82a5 5 0 0 0 5 5h64a5 5 0 0 0 5-5V60.04a5 5 0 0 0-1.037-3.048L79.01 34.952A5 5 0 0 0 75.046 33Zm-30.092-1a6 6 0 0 0-4.755 2.342l-16.955 22.04A6 6 0 0 0 22 60.041V82a6 6 0 0 0 6 6h64a6 6 0 0 0 6-6V60.04a6 6 0 0 0-1.244-3.657L79.8 34.341A6 6 0 0 0 75.046 32H44.954Z" clip-rule="evenodd"/><path fill="url(#d)" d="M46.784 37a3 3 0 0 0-2.37 1.16l-11.653 15C31.23 55.13 32.634 58 35.13 58H48a1 1 0 0 1 1 1v6a3 3 0 0 0 3 3h17a3 3 0 0 0 3-3v-6a1 1 0 0 1 1-1h11.87c2.496 0 3.9-2.87 2.37-4.84l-11.655-15a3 3 0 0 0-2.37-1.16h-26.43Z"/></g><defs><linearGradient id="b" x1="46" x2="46.443" y1="86.708" y2="20.163" gradientUnits="userSpaceOnUse"><stop stop-color="#fff"/><stop offset="1" stop-color="#F2F1FE"/></linearGradient><linearGradient id="c" x1="60" x2="60" y1="32" y2="88" gradientUnits="userSpaceOnUse"><stop stop-color="#E5E4FC"/><stop offset="1" stop-color="#F2F1FE"/></linearGradient><linearGradient id="d" x1="59.99" x2="59.99" y1="70" y2="43" gradientUnits="userSpaceOnUse"><stop stop-color="#CCC9FA"/><stop offset="1" stop-color="#E5E4FC"/></linearGradient><filter id="a" width="140" height="140" x="-10" y="-2.001" color-interpolation-filters="sRGB" filterUnits="userSpaceOnUse"><feFlood flood-opacity="0" result="BackgroundImageFix"/><feColorMatrix in="SourceAlpha" result="hardAlpha" values="0 0 0 0 0 0 0 0 0 0 0 0 0 0 0 0 0 0 127 0"/><feOffset dy="8"/><feGaussianBlur stdDeviation="5"/><feComposite in2="hardAlpha" operator="out"/><feColorMatrix values="0 0 0 0 0.498039 0 0 0 0 0.466667 0 0 0 0 0.945098 0 0 0 0.2 0"/><feBlend in2="BackgroundImageFix" result="effect1_dropShadow_2_58517"/><feBlend in="SourceGraphic" in2="effect1_dropShadow_2_58517" result="shape"/></filter></defs></svg>