<svg xmlns="http://www.w3.org/2000/svg" width="1152" height="1012" fill="none"><g clip-path="url(#a)"><path fill="#FAFBFC" d="M0 0h1152v1012H0z"/><path fill="url(#b)" d="M-6 1043h1388.53V134.893c0-87.203-70.69-157.894-157.89-157.894L81.632-23.004c-87.203 0-157.895 70.692-157.895 157.895v297.242L-6 1043Z"/><path fill="url(#c)" d="M-76.342 1023 1360 1013l22.45-750.341V136.888c0-87.203-70.69-157.895-157.9-157.895l-1142.997.003C-5.649-21.004-76.34 49.688-76.34 136.89l-.001 294.944V1023Z"/></g><defs><linearGradient id="b" x1="508.443" x2="223.832" y1="124.588" y2="779.833" gradientUnits="userSpaceOnUse"><stop stop-color="#8920FE"/><stop offset="1" stop-color="#6284F9"/></linearGradient><linearGradient id="c" x1="60.267" x2="1415.77" y1="130.552" y2="554.454" gradientUnits="userSpaceOnUse"><stop stop-color="#8920FE" stop-opacity="0"/><stop offset=".472" stop-color="#F928C6" stop-opacity=".54"/><stop offset="1" stop-color="#FF7E5B"/></linearGradient><clipPath id="a"><path fill="#fff" d="M0 0h1152v1012H0z"/></clipPath></defs></svg>