<svg width="80" height="80" viewBox="0 0 80 80" fill="none" xmlns="http://www.w3.org/2000/svg">
<path d="M16 25C16 19.4772 20.4772 15 26 15H54C59.5228 15 64 19.4772 64 25V60C64 65.5228 59.5228 70 54 70H26C20.4772 70 16 65.5228 16 60V25Z" fill="#F9F9F9"/>
<path fill-rule="evenodd" clip-rule="evenodd" d="M54 17H26C21.5817 17 18 20.5817 18 25V60C18 64.4183 21.5817 68 26 68H54C58.4183 68 62 64.4183 62 60V25C62 20.5817 58.4183 17 54 17ZM26 15C20.4772 15 16 19.4772 16 25V60C16 65.5228 20.4772 70 26 70H54C59.5228 70 64 65.5228 64 60V25C64 19.4772 59.5229 15 54 15H26Z" fill="#DDDDDD"/>
<path fill-rule="evenodd" clip-rule="evenodd" d="M26 17H54C58.4183 17 62 20.5817 62 25V60C62 64.4183 58.4183 68 54 68H26C21.5817 68 18 64.4183 18 60V25C18 20.5817 21.5817 17 26 17ZM26 19H54C57.3137 19 60 21.6863 60 25V60C60 63.3137 57.3137 66 54 66H26C22.6863 66 20 63.3137 20 60V25C20 21.6863 22.6863 19 26 19Z" fill="white"/>
<path d="M47 13C47 11.3431 45.6569 10 44 10H36C34.3431 10 33 11.3431 33 13C33 14.1046 32.1046 15 31 15C29.3431 15 28 16.3431 28 18V21C28 22.6569 29.3431 24 31 24H49C50.6569 24 52 22.6569 52 21V18C52 16.3431 50.6569 15 49 15C47.8954 15 47 14.1046 47 13Z" fill="#BBBBBB"/>
<path d="M28 36C28 35.4477 28.4477 35 29 35H51C51.5523 35 52 35.4477 52 36C52 36.5523 51.5523 37 51 37H29C28.4477 37 28 36.5523 28 36Z" fill="#BBBBBB"/>
<path d="M28 42C28 41.4477 28.4477 41 29 41H51C51.5523 41 52 41.4477 52 42C52 42.5523 51.5523 43 51 43H29C28.4477 43 28 42.5523 28 42Z" fill="#BBBBBB"/>
<path d="M28 48C28 47.4477 28.4477 47 29 47H51C51.5523 47 52 47.4477 52 48C52 48.5523 51.5523 49 51 49H29C28.4477 49 28 48.5523 28 48Z" fill="#BBBBBB"/>
<path d="M28 54C28 53.4477 28.4477 53 29 53H40C40.5523 53 41 53.4477 41 54C41 54.5523 40.5523 55 40 55H29C28.4477 55 28 54.5523 28 54Z" fill="#BBBBBB"/>
<path d="M71 67C71 72.5228 66.5228 77 61 77C55.4772 77 51 72.5228 51 67C51 61.4772 55.4772 57 61 57C66.5228 57 71 61.4772 71 67Z" fill="#8D8D8D"/>
<path d="M62.0012 62.8091C62.0012 62.234 61.535 61.7678 60.96 61.7678C60.3849 61.7678 59.9187 62.234 59.9187 62.8091V65.9185H56.8675C56.2924 65.9185 55.8262 66.3847 55.8262 66.9598C55.8262 67.5349 56.2924 68.0011 56.8675 68.0011L59.9187 68.0011V71.1892C59.9187 71.7643 60.3849 72.2305 60.96 72.2305C61.535 72.2305 62.0012 71.7643 62.0012 71.1892V68.0011L65.2475 68.0011C65.8226 68.0011 66.2888 67.5349 66.2888 66.9598C66.2888 66.3847 65.8226 65.9185 65.2475 65.9185H62.0012V62.8091Z" fill="white"/>
</svg>
